<svg xmlns="http://www.w3.org/2000/svg" width="1280" height="440" viewBox="0 0 1280 440" fill="none" role="img" aria-label="Scrim — a context firewall for Claude Code">
  <rect width="1280" height="440" fill="#101216"></rect>

  
  <g transform="translate(77.04 82.50) scale(0.72)"><g>
    <rect x="18" y="20" width="13" height="80" rx="3" fill="#FFFFFF"></rect>
    <rect x="18" y="20" width="27" height="13" rx="3" fill="#FFFFFF"></rect>
    <rect x="18" y="87" width="27" height="13" rx="3" fill="#FFFFFF"></rect>
    <rect x="89" y="20" width="13" height="80" rx="3" fill="#FFFFFF"></rect>
    <rect x="75" y="20" width="27" height="13" rx="3" fill="#FFFFFF"></rect>
    <rect x="75" y="87" width="27" height="13" rx="3" fill="#FFFFFF"></rect>
    <rect x="42" y="42" width="25" height="7" rx="3" fill="#FFFFFF" opacity="0.4"></rect>
    <rect x="42" y="56" width="36" height="11" rx="3" fill="#22B8A0"></rect>
    <rect x="42" y="74" width="30" height="7" rx="3" fill="#FFFFFF" opacity="0.4"></rect>
  </g></g>
  <text x="174" y="153" font-family="&#39;Space Grotesk&#39;,&#39;Segoe UI&#39;,sans-serif" font-weight="700" font-size="78" letter-spacing="-3" fill="#FFFFFF">Scrim</text>

  
  <text x="90" y="232" font-family="&#39;Space Grotesk&#39;,&#39;Segoe UI&#39;,sans-serif" font-weight="600" font-size="27" letter-spacing="-0.3" fill="#FFFFFF">A context firewall for Claude Code.</text>
  <text x="90" y="277" font-family="&#39;IBM Plex Mono&#39;,monospace" font-size="17.5" fill="#FFFFFF" opacity="0.6">Redacts secrets &amp; PII at the tool boundary —</text>
  <text x="90" y="303" font-family="&#39;IBM Plex Mono&#39;,monospace" font-size="17.5" fill="#FFFFFF" opacity="0.6">reversibly, without blocking the agent.</text>

  
  <rect x="90" y="338" width="11" height="11" rx="3" fill="#22B8A0"></rect>
  <text x="112" y="348" font-family="&#39;IBM Plex Mono&#39;,monospace" font-weight="500" font-size="14" letter-spacing="2" fill="#FFFFFF" opacity="0.85">CLAUDE CODE PLUGIN · MIT · ALPHA</text>

  
  <rect x="738" y="92" width="452" height="256" rx="16" fill="#181B21" stroke="#FFFFFF" stroke-opacity="0.10"></rect>
  <circle cx="768" cy="126" r="5" fill="#FFFFFF" opacity="0.22"></circle>
  <circle cx="786" cy="126" r="5" fill="#FFFFFF" opacity="0.22"></circle>
  <circle cx="804" cy="126" r="5" fill="#FFFFFF" opacity="0.22"></circle>
  <text x="1166" y="131" text-anchor="end" font-family="&#39;IBM Plex Mono&#39;,monospace" font-size="12" letter-spacing="0.6" fill="#FFFFFF" opacity="0.4">config.yml</text>

  <g font-family="&#39;IBM Plex Mono&#39;,monospace" font-size="17">
    <text x="762" y="186" fill="#FFFFFF" opacity="0.85">database:</text>
    <text x="786" y="218" fill="#FFFFFF" opacity="0.85">host: <tspan fill="#FFFFFF" opacity="0.5">db.internal</tspan></text>
    <text x="786" y="250" fill="#FFFFFF" opacity="0.85">password:</text>
  </g>
  
  <rect x="894" y="235" width="216" height="26" rx="7" fill="#22B8A0" fill-opacity="0.14" stroke="#22B8A0" stroke-opacity="0.5"></rect>
  <text x="906" y="253" font-family="&#39;IBM Plex Mono&#39;,monospace" font-size="15.5" font-weight="500" fill="#22B8A0">⟦scrim:db_pw:a1b2c3⟧</text>
  <text x="762" y="304" font-family="&#39;IBM Plex Mono&#39;,monospace" font-size="13" fill="#FFFFFF" opacity="0.42">↑ the model only ever sees the token</text>
  </svg>